<mxfile host="app.diagrams.net" modified="2023-09-13T01:36:35.890Z" agent="Mozilla/5.0 (Windows NT 10.0; Win64; x64) AppleWebKit/537.36 (KHTML, like Gecko) Chrome/116.0.0.0 Safari/537.36" etag="XfuqI2o8ZSyQcJ4RRxA7" version="21.7.4" type="github">
  <diagram name="Page-1" id="Igw9XwCfr5Qmd5ZEI1b1">
    <mxGraphModel dx="722" dy="1012" grid="1" gridSize="10" guides="1" tooltips="1" connect="1" arrows="1" fold="1" page="1" pageScale="1" pageWidth="4681" pageHeight="3300" math="0" shadow="0">
      <root>
        <mxCell id="0" />
        <mxCell id="1" parent="0" />
        <mxCell id="F3YR3yysebuFMm1pMb-U-11" style="edgeStyle=orthogonalEdgeStyle;rounded=0;orthogonalLoop=1;jettySize=auto;html=1;exitX=0.5;exitY=1;exitDx=0;exitDy=0;" edge="1" parent="1" source="F3YR3yysebuFMm1pMb-U-1" target="F3YR3yysebuFMm1pMb-U-5">
          <mxGeometry relative="1" as="geometry" />
        </mxCell>
        <mxCell id="F3YR3yysebuFMm1pMb-U-1" value="&lt;font style=&quot;font-size: 19px;&quot;&gt;&lt;b&gt;Start&lt;/b&gt;&lt;/font&gt;" style="rounded=1;whiteSpace=wrap;html=1;" vertex="1" parent="1">
          <mxGeometry x="245" y="220" width="120" height="60" as="geometry" />
        </mxCell>
        <mxCell id="F3YR3yysebuFMm1pMb-U-2" value="&lt;font style=&quot;font-size: 19px;&quot;&gt;&lt;b&gt;addPackage (Package p)&lt;/b&gt;&lt;/font&gt;" style="text;strokeColor=none;align=center;fillColor=none;html=1;verticalAlign=middle;whiteSpace=wrap;rounded=0;" vertex="1" parent="1">
          <mxGeometry x="170" y="80" width="280" height="70" as="geometry" />
        </mxCell>
        <mxCell id="F3YR3yysebuFMm1pMb-U-3" value="&lt;span style=&quot;font-size: 19px;&quot;&gt;&lt;b&gt;End&lt;/b&gt;&lt;/span&gt;" style="rounded=1;whiteSpace=wrap;html=1;" vertex="1" parent="1">
          <mxGeometry x="245" y="1110" width="120" height="60" as="geometry" />
        </mxCell>
        <mxCell id="F3YR3yysebuFMm1pMb-U-12" style="edgeStyle=orthogonalEdgeStyle;rounded=0;orthogonalLoop=1;jettySize=auto;html=1;exitX=0.5;exitY=1;exitDx=0;exitDy=0;" edge="1" parent="1" source="F3YR3yysebuFMm1pMb-U-5" target="F3YR3yysebuFMm1pMb-U-6">
          <mxGeometry relative="1" as="geometry" />
        </mxCell>
        <mxCell id="F3YR3yysebuFMm1pMb-U-5" value="&lt;span style=&quot;font-size: 19px;&quot;&gt;&lt;b&gt;int currentCap&lt;/b&gt;&lt;/span&gt;" style="rounded=1;whiteSpace=wrap;html=1;" vertex="1" parent="1">
          <mxGeometry x="195" y="360" width="220" height="60" as="geometry" />
        </mxCell>
        <mxCell id="F3YR3yysebuFMm1pMb-U-13" value="" style="edgeStyle=orthogonalEdgeStyle;rounded=0;orthogonalLoop=1;jettySize=auto;html=1;" edge="1" parent="1" source="F3YR3yysebuFMm1pMb-U-6" target="F3YR3yysebuFMm1pMb-U-7">
          <mxGeometry relative="1" as="geometry" />
        </mxCell>
        <mxCell id="F3YR3yysebuFMm1pMb-U-6" value="&lt;span style=&quot;font-size: 19px;&quot;&gt;&lt;b&gt;currentCap = storage.size() + shippingPackages.size()&lt;/b&gt;&lt;/span&gt;" style="rounded=1;whiteSpace=wrap;html=1;" vertex="1" parent="1">
          <mxGeometry x="30" y="500" width="550" height="60" as="geometry" />
        </mxCell>
        <mxCell id="F3YR3yysebuFMm1pMb-U-14" style="edgeStyle=orthogonalEdgeStyle;rounded=0;orthogonalLoop=1;jettySize=auto;html=1;exitX=1;exitY=0.5;exitDx=0;exitDy=0;" edge="1" parent="1" source="F3YR3yysebuFMm1pMb-U-7" target="F3YR3yysebuFMm1pMb-U-8">
          <mxGeometry relative="1" as="geometry" />
        </mxCell>
        <mxCell id="F3YR3yysebuFMm1pMb-U-16" style="edgeStyle=orthogonalEdgeStyle;rounded=0;orthogonalLoop=1;jettySize=auto;html=1;exitX=0.5;exitY=1;exitDx=0;exitDy=0;" edge="1" parent="1" source="F3YR3yysebuFMm1pMb-U-7" target="F3YR3yysebuFMm1pMb-U-10">
          <mxGeometry relative="1" as="geometry" />
        </mxCell>
        <mxCell id="F3YR3yysebuFMm1pMb-U-7" value="&lt;span style=&quot;font-size: 19px;&quot;&gt;&lt;b&gt;if: currentCap &amp;lt; MAX_CAPACITY&lt;/b&gt;&lt;/span&gt;" style="rounded=1;whiteSpace=wrap;html=1;" vertex="1" parent="1">
          <mxGeometry x="130" y="640" width="350" height="60" as="geometry" />
        </mxCell>
        <mxCell id="F3YR3yysebuFMm1pMb-U-15" style="edgeStyle=orthogonalEdgeStyle;rounded=0;orthogonalLoop=1;jettySize=auto;html=1;exitX=0.5;exitY=1;exitDx=0;exitDy=0;" edge="1" parent="1" source="F3YR3yysebuFMm1pMb-U-8" target="F3YR3yysebuFMm1pMb-U-9">
          <mxGeometry relative="1" as="geometry" />
        </mxCell>
        <mxCell id="F3YR3yysebuFMm1pMb-U-8" value="&lt;font style=&quot;font-size: 19px;&quot;&gt;&lt;b&gt;storage.add(p)&lt;/b&gt;&lt;/font&gt;" style="rounded=1;whiteSpace=wrap;html=1;" vertex="1" parent="1">
          <mxGeometry x="520" y="750" width="200" height="60" as="geometry" />
        </mxCell>
        <mxCell id="F3YR3yysebuFMm1pMb-U-18" style="edgeStyle=orthogonalEdgeStyle;rounded=0;orthogonalLoop=1;jettySize=auto;html=1;exitX=0.5;exitY=1;exitDx=0;exitDy=0;entryX=1;entryY=0.5;entryDx=0;entryDy=0;" edge="1" parent="1" source="F3YR3yysebuFMm1pMb-U-9" target="F3YR3yysebuFMm1pMb-U-3">
          <mxGeometry relative="1" as="geometry" />
        </mxCell>
        <mxCell id="F3YR3yysebuFMm1pMb-U-9" value="&lt;span style=&quot;font-size: 19px;&quot;&gt;&lt;b&gt;return true&lt;/b&gt;&lt;/span&gt;" style="rounded=1;whiteSpace=wrap;html=1;" vertex="1" parent="1">
          <mxGeometry x="535" y="900" width="170" height="60" as="geometry" />
        </mxCell>
        <mxCell id="F3YR3yysebuFMm1pMb-U-17" style="edgeStyle=orthogonalEdgeStyle;rounded=0;orthogonalLoop=1;jettySize=auto;html=1;exitX=0.5;exitY=1;exitDx=0;exitDy=0;" edge="1" parent="1" source="F3YR3yysebuFMm1pMb-U-10" target="F3YR3yysebuFMm1pMb-U-3">
          <mxGeometry relative="1" as="geometry" />
        </mxCell>
        <mxCell id="F3YR3yysebuFMm1pMb-U-10" value="&lt;span style=&quot;font-size: 19px;&quot;&gt;&lt;b&gt;return false&lt;/b&gt;&lt;/span&gt;" style="rounded=1;whiteSpace=wrap;html=1;" vertex="1" parent="1">
          <mxGeometry x="220" y="840" width="170" height="60" as="geometry" />
        </mxCell>
        <mxCell id="F3YR3yysebuFMm1pMb-U-19" value="&lt;font style=&quot;font-size: 18px;&quot;&gt;True&lt;/font&gt;" style="text;strokeColor=none;align=center;fillColor=none;html=1;verticalAlign=middle;whiteSpace=wrap;rounded=0;" vertex="1" parent="1">
          <mxGeometry x="480" y="640" width="60" height="30" as="geometry" />
        </mxCell>
        <mxCell id="F3YR3yysebuFMm1pMb-U-20" value="&lt;span style=&quot;font-size: 18px;&quot;&gt;False&lt;/span&gt;" style="text;strokeColor=none;align=center;fillColor=none;html=1;verticalAlign=middle;whiteSpace=wrap;rounded=0;" vertex="1" parent="1">
          <mxGeometry x="305" y="710" width="60" height="30" as="geometry" />
        </mxCell>
        <mxCell id="F3YR3yysebuFMm1pMb-U-21" value="&lt;span style=&quot;font-size: 19px;&quot;&gt;&lt;b&gt;shipLightPackages (double wgt)&lt;/b&gt;&lt;/span&gt;" style="text;strokeColor=none;align=center;fillColor=none;html=1;verticalAlign=middle;whiteSpace=wrap;rounded=0;" vertex="1" parent="1">
          <mxGeometry x="1370" y="120" width="390" height="70" as="geometry" />
        </mxCell>
        <mxCell id="F3YR3yysebuFMm1pMb-U-31" style="edgeStyle=orthogonalEdgeStyle;rounded=0;orthogonalLoop=1;jettySize=auto;html=1;exitX=0.5;exitY=1;exitDx=0;exitDy=0;" edge="1" parent="1" source="F3YR3yysebuFMm1pMb-U-22" target="F3YR3yysebuFMm1pMb-U-24">
          <mxGeometry relative="1" as="geometry" />
        </mxCell>
        <mxCell id="F3YR3yysebuFMm1pMb-U-22" value="&lt;font style=&quot;font-size: 19px;&quot;&gt;&lt;b&gt;Start&lt;/b&gt;&lt;/font&gt;" style="rounded=1;whiteSpace=wrap;html=1;" vertex="1" parent="1">
          <mxGeometry x="1490" y="260" width="120" height="60" as="geometry" />
        </mxCell>
        <mxCell id="F3YR3yysebuFMm1pMb-U-23" value="&lt;span style=&quot;font-size: 19px;&quot;&gt;&lt;b&gt;End&lt;/b&gt;&lt;/span&gt;" style="rounded=1;whiteSpace=wrap;html=1;" vertex="1" parent="1">
          <mxGeometry x="1490" y="1370" width="120" height="60" as="geometry" />
        </mxCell>
        <mxCell id="F3YR3yysebuFMm1pMb-U-32" style="edgeStyle=orthogonalEdgeStyle;rounded=0;orthogonalLoop=1;jettySize=auto;html=1;exitX=0.5;exitY=1;exitDx=0;exitDy=0;entryX=0.5;entryY=0;entryDx=0;entryDy=0;" edge="1" parent="1" source="F3YR3yysebuFMm1pMb-U-24" target="F3YR3yysebuFMm1pMb-U-25">
          <mxGeometry relative="1" as="geometry" />
        </mxCell>
        <mxCell id="F3YR3yysebuFMm1pMb-U-24" value="&lt;span style=&quot;font-size: 19px;&quot;&gt;&lt;b&gt;Iterator&amp;lt;Package&amp;gt; storageIter&lt;/b&gt;&lt;/span&gt;" style="rounded=1;whiteSpace=wrap;html=1;" vertex="1" parent="1">
          <mxGeometry x="1390" y="390" width="320" height="60" as="geometry" />
        </mxCell>
        <mxCell id="F3YR3yysebuFMm1pMb-U-33" style="edgeStyle=orthogonalEdgeStyle;rounded=0;orthogonalLoop=1;jettySize=auto;html=1;exitX=0.5;exitY=1;exitDx=0;exitDy=0;" edge="1" parent="1" source="F3YR3yysebuFMm1pMb-U-25" target="F3YR3yysebuFMm1pMb-U-26">
          <mxGeometry relative="1" as="geometry" />
        </mxCell>
        <mxCell id="F3YR3yysebuFMm1pMb-U-25" value="&lt;span style=&quot;font-size: 19px;&quot;&gt;&lt;b&gt;storageIter = storage.iterator()&lt;/b&gt;&lt;/span&gt;" style="rounded=1;whiteSpace=wrap;html=1;" vertex="1" parent="1">
          <mxGeometry x="1377.5" y="520" width="345" height="60" as="geometry" />
        </mxCell>
        <mxCell id="F3YR3yysebuFMm1pMb-U-34" style="edgeStyle=orthogonalEdgeStyle;rounded=0;orthogonalLoop=1;jettySize=auto;html=1;exitX=0.5;exitY=1;exitDx=0;exitDy=0;" edge="1" parent="1" source="F3YR3yysebuFMm1pMb-U-26" target="F3YR3yysebuFMm1pMb-U-27">
          <mxGeometry relative="1" as="geometry" />
        </mxCell>
        <mxCell id="F3YR3yysebuFMm1pMb-U-39" style="edgeStyle=orthogonalEdgeStyle;rounded=0;orthogonalLoop=1;jettySize=auto;html=1;exitX=1;exitY=0.5;exitDx=0;exitDy=0;entryX=1;entryY=0.5;entryDx=0;entryDy=0;" edge="1" parent="1" source="F3YR3yysebuFMm1pMb-U-26" target="F3YR3yysebuFMm1pMb-U-23">
          <mxGeometry relative="1" as="geometry">
            <Array as="points">
              <mxPoint x="1820" y="690" />
              <mxPoint x="1820" y="1400" />
            </Array>
          </mxGeometry>
        </mxCell>
        <mxCell id="F3YR3yysebuFMm1pMb-U-26" value="&lt;span style=&quot;font-size: 19px;&quot;&gt;&lt;b&gt;while: storageIter.hasNext()&lt;/b&gt;&lt;/span&gt;" style="rounded=1;whiteSpace=wrap;html=1;" vertex="1" parent="1">
          <mxGeometry x="1390" y="660" width="320" height="60" as="geometry" />
        </mxCell>
        <mxCell id="F3YR3yysebuFMm1pMb-U-35" style="edgeStyle=orthogonalEdgeStyle;rounded=0;orthogonalLoop=1;jettySize=auto;html=1;exitX=0.5;exitY=1;exitDx=0;exitDy=0;entryX=0.5;entryY=0;entryDx=0;entryDy=0;" edge="1" parent="1" source="F3YR3yysebuFMm1pMb-U-27" target="F3YR3yysebuFMm1pMb-U-28">
          <mxGeometry relative="1" as="geometry" />
        </mxCell>
        <mxCell id="F3YR3yysebuFMm1pMb-U-27" value="&lt;span style=&quot;font-size: 19px;&quot;&gt;&lt;b&gt;Package p = storageIter.next()&lt;/b&gt;&lt;/span&gt;" style="rounded=1;whiteSpace=wrap;html=1;" vertex="1" parent="1">
          <mxGeometry x="1360" y="790" width="380" height="60" as="geometry" />
        </mxCell>
        <mxCell id="F3YR3yysebuFMm1pMb-U-36" style="edgeStyle=orthogonalEdgeStyle;rounded=0;orthogonalLoop=1;jettySize=auto;html=1;exitX=0.5;exitY=1;exitDx=0;exitDy=0;" edge="1" parent="1" source="F3YR3yysebuFMm1pMb-U-28" target="F3YR3yysebuFMm1pMb-U-29">
          <mxGeometry relative="1" as="geometry" />
        </mxCell>
        <mxCell id="F3YR3yysebuFMm1pMb-U-43" style="edgeStyle=orthogonalEdgeStyle;rounded=0;orthogonalLoop=1;jettySize=auto;html=1;exitX=0;exitY=0.5;exitDx=0;exitDy=0;entryX=0;entryY=0.5;entryDx=0;entryDy=0;" edge="1" parent="1" source="F3YR3yysebuFMm1pMb-U-28" target="F3YR3yysebuFMm1pMb-U-26">
          <mxGeometry relative="1" as="geometry">
            <Array as="points">
              <mxPoint x="1320" y="950" />
              <mxPoint x="1320" y="690" />
            </Array>
          </mxGeometry>
        </mxCell>
        <mxCell id="F3YR3yysebuFMm1pMb-U-28" value="&lt;span style=&quot;font-size: 19px;&quot;&gt;&lt;b&gt;if: p.getWeight() &amp;lt; wgt&lt;/b&gt;&lt;/span&gt;" style="rounded=1;whiteSpace=wrap;html=1;" vertex="1" parent="1">
          <mxGeometry x="1410" y="920" width="280" height="60" as="geometry" />
        </mxCell>
        <mxCell id="F3YR3yysebuFMm1pMb-U-37" style="edgeStyle=orthogonalEdgeStyle;rounded=0;orthogonalLoop=1;jettySize=auto;html=1;exitX=0.5;exitY=1;exitDx=0;exitDy=0;entryX=0.5;entryY=0;entryDx=0;entryDy=0;" edge="1" parent="1" source="F3YR3yysebuFMm1pMb-U-29" target="F3YR3yysebuFMm1pMb-U-30">
          <mxGeometry relative="1" as="geometry" />
        </mxCell>
        <mxCell id="F3YR3yysebuFMm1pMb-U-29" value="&lt;span style=&quot;font-size: 19px;&quot;&gt;&lt;b&gt;addToShipping(p)&lt;/b&gt;&lt;/span&gt;" style="rounded=1;whiteSpace=wrap;html=1;" vertex="1" parent="1">
          <mxGeometry x="1420" y="1070" width="260" height="60" as="geometry" />
        </mxCell>
        <mxCell id="F3YR3yysebuFMm1pMb-U-38" style="edgeStyle=orthogonalEdgeStyle;rounded=0;orthogonalLoop=1;jettySize=auto;html=1;exitX=0;exitY=0.5;exitDx=0;exitDy=0;entryX=0;entryY=0.5;entryDx=0;entryDy=0;" edge="1" parent="1" source="F3YR3yysebuFMm1pMb-U-30" target="F3YR3yysebuFMm1pMb-U-26">
          <mxGeometry relative="1" as="geometry">
            <Array as="points">
              <mxPoint x="1280" y="1240" />
              <mxPoint x="1280" y="690" />
            </Array>
          </mxGeometry>
        </mxCell>
        <mxCell id="F3YR3yysebuFMm1pMb-U-30" value="&lt;span style=&quot;font-size: 19px;&quot;&gt;&lt;b&gt;storageIter.remove()&lt;/b&gt;&lt;/span&gt;" style="rounded=1;whiteSpace=wrap;html=1;" vertex="1" parent="1">
          <mxGeometry x="1415" y="1210" width="270" height="60" as="geometry" />
        </mxCell>
        <mxCell id="F3YR3yysebuFMm1pMb-U-41" value="&lt;font style=&quot;font-size: 18px;&quot;&gt;True&lt;/font&gt;" style="text;strokeColor=none;align=center;fillColor=none;html=1;verticalAlign=middle;whiteSpace=wrap;rounded=0;" vertex="1" parent="1">
          <mxGeometry x="1550" y="720" width="60" height="30" as="geometry" />
        </mxCell>
        <mxCell id="F3YR3yysebuFMm1pMb-U-42" value="&lt;span style=&quot;font-size: 18px;&quot;&gt;False&lt;/span&gt;" style="text;strokeColor=none;align=center;fillColor=none;html=1;verticalAlign=middle;whiteSpace=wrap;rounded=0;" vertex="1" parent="1">
          <mxGeometry x="1710" y="660" width="60" height="30" as="geometry" />
        </mxCell>
        <mxCell id="F3YR3yysebuFMm1pMb-U-44" value="&lt;font style=&quot;font-size: 18px;&quot;&gt;True&lt;/font&gt;" style="text;strokeColor=none;align=center;fillColor=none;html=1;verticalAlign=middle;whiteSpace=wrap;rounded=0;" vertex="1" parent="1">
          <mxGeometry x="1550" y="980" width="60" height="30" as="geometry" />
        </mxCell>
        <mxCell id="F3YR3yysebuFMm1pMb-U-45" value="&lt;span style=&quot;font-size: 18px;&quot;&gt;False&lt;/span&gt;" style="text;strokeColor=none;align=center;fillColor=none;html=1;verticalAlign=middle;whiteSpace=wrap;rounded=0;" vertex="1" parent="1">
          <mxGeometry x="1350" y="920" width="60" height="30" as="geometry" />
        </mxCell>
        <mxCell id="F3YR3yysebuFMm1pMb-U-55" style="edgeStyle=orthogonalEdgeStyle;rounded=0;orthogonalLoop=1;jettySize=auto;html=1;exitX=1;exitY=0.5;exitDx=0;exitDy=0;" edge="1" parent="1" source="F3YR3yysebuFMm1pMb-U-46" target="F3YR3yysebuFMm1pMb-U-47">
          <mxGeometry relative="1" as="geometry" />
        </mxCell>
        <mxCell id="F3YR3yysebuFMm1pMb-U-56" style="edgeStyle=orthogonalEdgeStyle;rounded=0;orthogonalLoop=1;jettySize=auto;html=1;exitX=1;exitY=0.5;exitDx=0;exitDy=0;entryX=0;entryY=0.5;entryDx=0;entryDy=0;" edge="1" parent="1" source="F3YR3yysebuFMm1pMb-U-46" target="F3YR3yysebuFMm1pMb-U-48">
          <mxGeometry relative="1" as="geometry" />
        </mxCell>
        <mxCell id="F3YR3yysebuFMm1pMb-U-57" style="edgeStyle=orthogonalEdgeStyle;rounded=0;orthogonalLoop=1;jettySize=auto;html=1;exitX=1;exitY=0.5;exitDx=0;exitDy=0;entryX=0;entryY=0.5;entryDx=0;entryDy=0;" edge="1" parent="1" source="F3YR3yysebuFMm1pMb-U-46" target="F3YR3yysebuFMm1pMb-U-49">
          <mxGeometry relative="1" as="geometry" />
        </mxCell>
        <mxCell id="F3YR3yysebuFMm1pMb-U-58" style="edgeStyle=orthogonalEdgeStyle;rounded=0;orthogonalLoop=1;jettySize=auto;html=1;exitX=1;exitY=0.5;exitDx=0;exitDy=0;entryX=0;entryY=0.5;entryDx=0;entryDy=0;" edge="1" parent="1" source="F3YR3yysebuFMm1pMb-U-46" target="F3YR3yysebuFMm1pMb-U-50">
          <mxGeometry relative="1" as="geometry" />
        </mxCell>
        <mxCell id="F3YR3yysebuFMm1pMb-U-59" style="edgeStyle=orthogonalEdgeStyle;rounded=0;orthogonalLoop=1;jettySize=auto;html=1;exitX=1;exitY=0.5;exitDx=0;exitDy=0;entryX=0;entryY=0.5;entryDx=0;entryDy=0;" edge="1" parent="1" source="F3YR3yysebuFMm1pMb-U-46" target="F3YR3yysebuFMm1pMb-U-51">
          <mxGeometry relative="1" as="geometry" />
        </mxCell>
        <mxCell id="F3YR3yysebuFMm1pMb-U-60" style="edgeStyle=orthogonalEdgeStyle;rounded=0;orthogonalLoop=1;jettySize=auto;html=1;exitX=1;exitY=0.5;exitDx=0;exitDy=0;entryX=0;entryY=0.5;entryDx=0;entryDy=0;" edge="1" parent="1" source="F3YR3yysebuFMm1pMb-U-46" target="F3YR3yysebuFMm1pMb-U-54">
          <mxGeometry relative="1" as="geometry" />
        </mxCell>
        <mxCell id="F3YR3yysebuFMm1pMb-U-46" value="&lt;span style=&quot;font-size: 19px;&quot;&gt;&lt;b&gt;Warehouse.shipLightPackages&lt;/b&gt;&lt;/span&gt;" style="rounded=1;whiteSpace=wrap;html=1;" vertex="1" parent="1">
          <mxGeometry x="2010" y="250" width="345" height="60" as="geometry" />
        </mxCell>
        <mxCell id="F3YR3yysebuFMm1pMb-U-47" value="&lt;span style=&quot;font-size: 19px;&quot;&gt;&lt;b&gt;List.iterator&lt;/b&gt;&lt;/span&gt;" style="rounded=1;whiteSpace=wrap;html=1;" vertex="1" parent="1">
          <mxGeometry x="2450" y="250" width="160" height="60" as="geometry" />
        </mxCell>
        <mxCell id="F3YR3yysebuFMm1pMb-U-48" value="&lt;span style=&quot;font-size: 19px;&quot;&gt;&lt;b&gt;Iterator.hasNext&lt;/b&gt;&lt;/span&gt;" style="rounded=1;whiteSpace=wrap;html=1;" vertex="1" parent="1">
          <mxGeometry x="2440" y="400" width="210" height="60" as="geometry" />
        </mxCell>
        <mxCell id="F3YR3yysebuFMm1pMb-U-49" value="&lt;span style=&quot;font-size: 19px;&quot;&gt;&lt;b&gt;Iterator.next&lt;/b&gt;&lt;/span&gt;" style="rounded=1;whiteSpace=wrap;html=1;" vertex="1" parent="1">
          <mxGeometry x="2440" y="550" width="180" height="60" as="geometry" />
        </mxCell>
        <mxCell id="F3YR3yysebuFMm1pMb-U-50" value="&lt;span style=&quot;font-size: 19px;&quot;&gt;&lt;b&gt;Package.getWeight&lt;/b&gt;&lt;/span&gt;" style="rounded=1;whiteSpace=wrap;html=1;" vertex="1" parent="1">
          <mxGeometry x="2440" y="695" width="240" height="60" as="geometry" />
        </mxCell>
        <mxCell id="F3YR3yysebuFMm1pMb-U-61" style="edgeStyle=orthogonalEdgeStyle;rounded=0;orthogonalLoop=1;jettySize=auto;html=1;exitX=1;exitY=0.5;exitDx=0;exitDy=0;entryX=0;entryY=0.5;entryDx=0;entryDy=0;" edge="1" parent="1" source="F3YR3yysebuFMm1pMb-U-51" target="F3YR3yysebuFMm1pMb-U-52">
          <mxGeometry relative="1" as="geometry" />
        </mxCell>
        <mxCell id="F3YR3yysebuFMm1pMb-U-62" style="edgeStyle=orthogonalEdgeStyle;rounded=0;orthogonalLoop=1;jettySize=auto;html=1;exitX=1;exitY=0.5;exitDx=0;exitDy=0;entryX=0;entryY=0.5;entryDx=0;entryDy=0;" edge="1" parent="1" source="F3YR3yysebuFMm1pMb-U-51" target="F3YR3yysebuFMm1pMb-U-53">
          <mxGeometry relative="1" as="geometry" />
        </mxCell>
        <mxCell id="F3YR3yysebuFMm1pMb-U-51" value="&lt;span style=&quot;font-size: 19px;&quot;&gt;&lt;b&gt;Warehouse.addToShipping&lt;/b&gt;&lt;/span&gt;" style="rounded=1;whiteSpace=wrap;html=1;" vertex="1" parent="1">
          <mxGeometry x="2440" y="850" width="320" height="60" as="geometry" />
        </mxCell>
        <mxCell id="F3YR3yysebuFMm1pMb-U-52" value="&lt;span style=&quot;font-size: 19px;&quot;&gt;&lt;b&gt;List.size&lt;/b&gt;&lt;/span&gt;" style="rounded=1;whiteSpace=wrap;html=1;" vertex="1" parent="1">
          <mxGeometry x="2850" y="850" width="139" height="60" as="geometry" />
        </mxCell>
        <mxCell id="F3YR3yysebuFMm1pMb-U-53" value="&lt;span style=&quot;font-size: 19px;&quot;&gt;&lt;b&gt;List.add&lt;/b&gt;&lt;/span&gt;" style="rounded=1;whiteSpace=wrap;html=1;" vertex="1" parent="1">
          <mxGeometry x="2850" y="980" width="130" height="60" as="geometry" />
        </mxCell>
        <mxCell id="F3YR3yysebuFMm1pMb-U-54" value="&lt;span style=&quot;font-size: 19px;&quot;&gt;&lt;b&gt;Iterator.remove&lt;/b&gt;&lt;/span&gt;" style="rounded=1;whiteSpace=wrap;html=1;" vertex="1" parent="1">
          <mxGeometry x="2440" y="1140" width="200" height="60" as="geometry" />
        </mxCell>
        <mxCell id="F3YR3yysebuFMm1pMb-U-63" value="&lt;span style=&quot;font-size: 19px;&quot;&gt;&lt;b&gt;Call Graph&lt;/b&gt;&lt;/span&gt;" style="text;strokeColor=none;align=center;fillColor=none;html=1;verticalAlign=middle;whiteSpace=wrap;rounded=0;" vertex="1" parent="1">
          <mxGeometry x="2220" y="70" width="180" height="70" as="geometry" />
        </mxCell>
      </root>
    </mxGraphModel>
  </diagram>
</mxfile>
